HIERARCHY
ROOT Hips
{
	OFFSET -0.001795 -0.223333 0.028219
	CHANNELS 6 Xposition Yposition Zposition Zrotation Yrotation Xrotation 
	JOINT LeftUpLeg
	{
		OFFSET 0.069520 -0.091406 -0.006815
		CHANNELS 3 Zrotation Yrotation Xrotation
		JOINT LeftLeg
		{
			OFFSET 0.034277 -0.375199 -0.004496
			CHANNELS 3 Zrotation Yrotation Xrotation
			JOINT LeftFoot
			{
				OFFSET -0.013596 -0.397961 -0.043693
				CHANNELS 3 Zrotation Yrotation Xrotation
				JOINT LeftToe
				{
					OFFSET 0.026358 -0.055791 0.119288
					CHANNELS 3 Zrotation Yrotation Xrotation
					End Site
					{
						OFFSET 0.000000 0.000000 0.000000
					}
				}
			}
		}
	}
	JOINT RightUpLeg
	{
		OFFSET -0.067670 -0.090522 -0.004320
		CHANNELS 3 Zrotation Yrotation Xrotation
		JOINT RightLeg
		{
			OFFSET -0.038290 -0.382569 -0.008850
			CHANNELS 3 Zrotation Yrotation Xrotation
			JOINT RightFoot
			{
				OFFSET 0.015774 -0.398415 -0.042312
				CHANNELS 3 Zrotation Yrotation Xrotation
				JOINT RightToe
				{
					OFFSET -0.025372 -0.048144 0.123348
					CHANNELS 3 Zrotation Yrotation Xrotation
					End Site
					{
						OFFSET 0.000000 0.000000 0.000000
					}
				}
			}
		}
	}
	JOINT Spine
	{
		OFFSET -0.002533 0.108963 -0.026696
		CHANNELS 3 Zrotation Yrotation Xrotation
		JOINT Spine1
		{
			OFFSET 0.005487 0.135180 0.001092
			CHANNELS 3 Zrotation Yrotation Xrotation
			JOINT Spine2
			{
				OFFSET 0.001457 0.052922 0.025425
				CHANNELS 3 Zrotation Yrotation Xrotation
				JOINT Neck
				{
					OFFSET -0.002778 0.213870 -0.042857
					CHANNELS 3 Zrotation Yrotation Xrotation
					JOINT Head
					{
						OFFSET 0.005152 0.064970 0.051349
						CHANNELS 3 Zrotation Yrotation Xrotation
						End Site
						{
							OFFSET 0.000000 0.000000 0.000000
						}
					}
				}
				JOINT LeftShoulder
				{
					OFFSET 0.078845 0.121749 -0.034090
					CHANNELS 3 Zrotation Yrotation Xrotation
					JOINT LeftArm
					{
						OFFSET 0.090977 0.030469 -0.008868
						CHANNELS 3 Zrotation Yrotation Xrotation
						JOINT LeftForeArm
						{
							OFFSET 0.259612 -0.012772 -0.027456
							CHANNELS 3 Zrotation Yrotation Xrotation
							JOINT LeftHand
							{
								OFFSET 0.249234 0.008986 -0.001171
								CHANNELS 3 Zrotation Yrotation Xrotation
								End Site
								{
									OFFSET 0.000000 0.000000 0.000000
								}
							}
						}
					}
				}
				JOINT RightShoulder
				{
					OFFSET -0.081759 0.118833 -0.038615
					CHANNELS 3 Zrotation Yrotation Xrotation
					JOINT RightArm
					{
						OFFSET -0.096012 0.032551 -0.009143
						CHANNELS 3 Zrotation Yrotation Xrotation
						JOINT RightForeArm
						{
							OFFSET -0.253742 -0.013329 -0.021401
							CHANNELS 3 Zrotation Yrotation Xrotation
							JOINT RightHand
							{
								OFFSET -0.255298 0.007772 -0.005559
								CHANNELS 3 Zrotation Yrotation Xrotation
								End Site
								{
									OFFSET 0.000000 0.000000 0.000000
								}
							}
						}
					}
				}
			}
		}
	}
}
MOTION
Frames: 7
Frame Time: 0.050000
0.000000 0.948504 0.000000 -12.333302 -14.648056 17.116691 9.899823 0.586008 -22.367774 -1.991846 0.388015 10.231511 -12.445679 -19.295038 9.481722 0.000000 0.000000 0.000000 2.459538 2.277744 -17.903780 3.366442 -0.121163 4.074939 0.998669 -6.648880 14.795341 0.000000 0.000000 0.000000 -6.765251 1.417616 19.809473 -8.206342 4.208251 2.985662 -3.090646 1.974137 6.851597 -1.045726 1.209194 -13.515061 0.000000 0.000000 0.000000 -20.243560 -17.664012 9.702838 -17.981197 -22.558976 -0.231622 20.140280 -24.592755 -3.094795 0.000000 0.000000 0.000000 18.262794 8.109386 1.692618 46.569229 -2.206258 -4.985161 15.382344 45.162050 7.168026 0.000000 0.000000 0.000000 
0.002216 0.948597 -0.001995 -13.422121 -16.517255 17.570707 12.091727 1.181397 -21.614890 -4.453995 0.976282 9.266940 -11.663661 -17.970657 9.484501 0.000000 0.000000 0.000000 4.028241 2.466343 -18.046039 2.320453 0.004764 4.355679 1.640947 -5.452530 13.900048 0.000000 0.000000 0.000000 -7.951281 1.890673 20.501435 -6.854032 3.395949 1.457715 -4.202561 4.803339 7.933592 -0.932033 1.356187 -14.550910 0.000000 0.000000 0.000000 -20.454790 -16.500178 8.519237 -18.859951 -22.906577 -0.150222 22.931865 -26.476392 -3.985762 0.000000 0.000000 0.000000 17.713295 5.773490 1.032467 47.664181 1.393144 -4.041668 13.774891 43.677748 6.609950 0.000000 0.000000 0.000000 
0.003841 0.947895 -0.003417 -12.973057 -14.918057 17.721987 11.715360 1.084606 -23.048179 -4.380276 0.964147 10.257897 -12.507237 -18.992918 10.098352 0.000000 0.000000 0.000000 4.180874 2.551126 -18.548277 3.077755 -0.075255 4.497598 -1.239634 -10.192080 13.489176 0.000000 0.000000 0.000000 -6.358586 1.397740 20.613345 -5.982514 2.940867 1.319058 -6.341800 5.314574 7.695195 -0.798400 1.265092 -11.533901 0.000000 0.000000 0.000000 -22.797224 -18.339736 9.426248 -15.685135 -23.573551 -0.297986 21.740455 -26.101753 -3.743301 0.000000 0.000000 0.000000 18.850375 6.087538 1.571692 47.379975 -0.323941 -4.696385 16.804352 45.580267 8.410831 0.000000 0.000000 0.000000 
0.004877 0.946471 -0.004167 -13.612804 -15.627160 18.189658 12.562158 1.411637 -23.694827 -4.963210 1.179914 11.129605 -12.097974 -18.644273 9.523459 0.000000 0.000000 0.000000 4.229794 2.532673 -18.393995 3.354517 -0.126046 3.265676 -0.178625 -8.715824 14.177372 0.000000 0.000000 0.000000 -6.563073 1.459006 20.141783 -6.536183 3.305509 2.188866 -6.522568 6.091538 7.642648 -0.255762 0.959001 -11.533226 0.000000 0.000000 0.000000 -22.482447 -18.578521 9.322256 -15.737384 -23.925522 -0.212483 22.187871 -25.452414 -3.770344 0.000000 0.000000 0.000000 20.097830 6.015605 1.645216 47.235740 -0.101619 -4.640594 13.599474 47.144529 7.471341 0.000000 0.000000 0.000000 
0.005612 0.945558 -0.004244 -13.329199 -15.525392 18.094351 12.350691 1.432475 -24.445867 -5.170338 1.307694 12.363982 -12.227461 -18.821279 9.553722 0.000000 0.000000 0.000000 4.262688 2.524086 -18.339333 2.921499 -0.092441 3.218869 -0.533626 -9.187249 13.823493 0.000000 0.000000 0.000000 -6.738556 1.561159 20.846701 -6.072522 3.082285 2.268469 -6.980151 6.782645 7.503797 0.809663 0.357354 -11.684168 0.000000 0.000000 0.000000 -22.742078 -19.151862 9.382672 -16.519064 -24.213923 -0.052395 24.219729 -25.787301 -4.305353 0.000000 0.000000 0.000000 20.939966 5.831100 1.795393 47.472040 0.184260 -4.623795 13.969213 48.694757 8.093365 0.000000 0.000000 0.000000 
0.006407 0.944422 -0.003532 -13.168899 -15.079312 17.996750 12.213827 1.354752 -24.555130 -5.244809 1.317415 12.501181 -12.376215 -19.179277 9.389266 0.000000 0.000000 0.000000 4.463995 2.538928 -18.372819 3.101252 -0.102158 3.561837 -1.846983 -11.154070 13.128031 0.000000 0.000000 0.000000 -6.771613 1.603844 21.484733 -5.646264 2.830441 1.920715 -6.873384 6.995083 7.672013 1.761024 -0.266351 -11.215389 0.000000 0.000000 0.000000 -22.235610 -19.658019 9.491705 -17.776177 -24.321162 0.113284 25.001392 -26.423359 -4.614432 0.000000 0.000000 0.000000 22.053658 5.961790 2.002649 47.345670 1.213297 -4.290943 12.371708 48.656215 7.476760 0.000000 0.000000 0.000000 
0.007443 0.943574 -0.002063 -12.843903 -14.996338 17.858293 11.700828 1.247141 -24.787055 -5.090736 1.310272 13.065203 -12.405706 -19.332877 9.213391 0.000000 0.000000 0.000000 4.422764 2.473721 -18.056099 2.550997 -0.060745 3.384559 -2.013916 -11.263727 12.645773 0.000000 0.000000 0.000000 -6.806020 1.623633 21.670021 -5.196556 2.620856 2.042248 -6.878883 7.430120 7.447710 2.560860 -0.752121 -11.151078 0.000000 0.000000 0.000000 -22.709595 -19.712391 9.377465 -18.946622 -24.329039 0.291751 25.317475 -27.357031 -4.889800 0.000000 0.000000 0.000000 22.614069 6.386788 2.436835 48.100054 2.642985 -3.875069 9.221456 48.059796 6.106900 0.000000 0.000000 0.000000 
